<svg width="58" height="48" viewBox="0 0 58 48" fill="none" xmlns="http://www.w3.org/2000/svg">
<path d="M25.5973 45.5348L22.7602 45.7641C22.5125 45.7841 22.267 45.6897 22.0934 45.5078C21.8618 45.265 21.7978 44.909 21.9316 44.6079L22.5355 43.2489C22.6649 42.9578 22.7469 42.6471 22.7784 42.3283L23.0839 39.2393L23.2991 36.218L23.6086 33.5749L23.8254 30.6566L23.7799 27.8747L23.4721 25.2289L23.0792 22.7781" stroke="white" stroke-width="2.97822" stroke-linecap="round"/>
<path d="M10.8454 4.62746L11.5893 3.7685C11.8086 3.51524 11.8797 3.1642 11.7775 2.83948L11.7705 2.81735C11.5443 2.09898 10.6282 1.88157 10.1266 2.42719C9.94648 2.62308 9.69151 2.73368 9.42262 2.73254L8.24775 2.72755C7.87779 2.72598 7.52642 2.87585 7.27532 3.14232C6.99434 3.44052 6.58964 3.59096 6.17681 3.55069L4.6235 3.39916C4.14077 3.35207 3.65701 3.43673 3.22389 3.64408C2.90979 3.79446 2.62968 4.00586 2.39958 4.26621L1.94068 4.78543C1.64279 5.12248 1.48215 5.56021 1.48959 6.01465L1.49772 6.51214C1.50361 6.87202 1.70342 7.20467 2.02023 7.38203C2.17025 7.46601 2.33855 7.5105 2.50898 7.51122L2.60186 7.51162L5.80302 7.52521C6.40877 7.52778 6.99461 7.76591 7.43656 8.1892C7.78513 8.52306 8.02491 8.9538 8.12348 9.42316L8.35465 10.5239L8.72838 11.8492C9.14191 13.3156 9.80507 14.7046 10.6884 15.9543C11.2414 16.7366 11.8763 17.4584 12.5822 18.107L13.2234 18.6961C13.6389 19.0779 14.0933 19.4147 14.5788 19.7008C15.7914 20.4155 17.167 20.7956 18.562 20.8015L19.0472 20.8036C19.8263 20.8069 20.6021 20.9394 21.343 21.1957C22.2625 21.5137 23.1107 22.0163 23.8345 22.6721L24.0936 22.9067C25.1051 23.8231 25.8943 24.958 26.3987 26.2214L27.3485 28.6004L28.744 33.0366L29.509 34.7883C30.2302 36.4399 30.5412 38.2341 30.415 40.0156L30.3836 40.4585C30.3575 40.8261 30.2982 41.1899 30.2061 41.5453L29.5343 44.141C29.436 44.5208 29.5384 44.9286 29.8063 45.2236C29.9745 45.4089 30.1965 45.5367 30.4398 45.5884L30.8949 45.6851C32.4974 46.0255 33.9775 44.8131 33.9508 43.1817L33.857 37.4455C33.8487 36.9365 33.7866 36.4287 33.6719 35.9305L31.331 25.7663C31.3276 25.7514 31.3257 25.7362 31.3255 25.721C31.3227 25.5496 31.5108 25.4472 31.6562 25.5408L34.7146 27.5104C35.0706 27.7396 35.4832 27.8626 35.9027 27.8643L37.4139 27.8708C38.0551 27.8735 38.6962 27.7906 39.3125 27.6265C40.7231 27.2508 41.9914 26.4598 42.9382 25.3585L43.7819 24.3773" stroke="white" stroke-width="2.97822" stroke-linecap="round"/>
<path d="M41.7408 18.6527L41.4416 18.9832C40.5136 20.0082 39.3982 20.8465 38.1531 21.4546L38.0567 21.5018C37.4732 21.7867 36.8622 22.0137 36.2324 22.1793C34.907 22.5278 33.5187 22.5996 32.153 22.3902L31.6889 22.319" stroke="white" stroke-width="2.97822" stroke-linecap="round"/>
<path d="M43.474 43.6745L41.924 43.6679C41.6062 43.6666 41.3063 43.5086 41.1225 43.2456C40.8698 42.8841 40.8886 42.4028 41.1684 42.0732L43.4557 39.3783C44.3158 38.3649 44.7769 37.0687 44.7549 35.7259L44.692 31.879C44.6751 30.8472 44.4805 29.8133 44.1227 28.8382C43.5173 27.1884 43.3925 25.3936 43.7738 23.6979" stroke="white" stroke-width="2.97822" stroke-linecap="round"/>
<path d="M51.6431 45.1685L48.8724 44.8606C48.4785 44.8168 48.2168 44.4233 48.3315 44.0474C48.3506 43.9846 48.3797 43.9254 48.4176 43.8722L49.1476 42.8455C50.6638 40.7132 51.0991 37.9815 50.3277 35.4392L49.6484 33.2002C49.0396 31.1934 47.972 29.3474 46.5313 27.8098L46.2991 27.5621C45.5815 26.714 44.9471 25.7994 44.405 24.8314L43.7768 23.7095" stroke="white" stroke-width="2.97822" stroke-linecap="round"/>
<path d="M44.0497 10.5648L45.1094 11.9378C46.6595 13.9462 47.3467 16.4782 47.0155 18.9608C46.6803 21.4744 47.389 24.037 48.9776 26.0556L50.3612 27.8137C52.9634 31.1203 54.0425 35.356 53.3241 39.4438L52.3139 45.1912" stroke="white" stroke-width="2.97822" stroke-linecap="round"/>
<path d="M55.8722 24.615L51.8113 19.35C51.1613 18.5073 50.6552 17.5644 50.3139 16.5606L50.0824 15.8794C49.3417 13.7004 47.6946 11.9327 45.5711 11.0378C44.0745 10.407 42.7986 9.33525 41.9166 7.96782L39.6209 4.40859C38.117 2.07704 35.0093 1.40825 32.7518 2.93032C32.4404 3.14025 32.1553 3.38627 31.9023 3.6634L30.4191 5.28805C29.4534 6.34572 28.1661 7.05699 26.7479 7.31637C25.4209 7.55906 24.2063 8.19784 23.2627 9.14927L19.3945 13.0495C18.1777 14.2764 16.2085 14.359 14.845 13.2403C14.4357 12.9045 14.1079 12.4799 13.8875 12L12.9926 10.0518C12.7283 9.47637 12.559 8.86357 12.4914 8.23762C12.4214 7.58972 12.2424 6.95607 11.9622 6.36351L11.4416 5.26285" stroke="white" stroke-width="2.97822" stroke-linecap="round"/>
<path d="M30.3901 25.0612C30.1731 24.9597 29.9086 24.9286 29.552 25.043L29.4956 25.0613L29.4362 25.0678C28.9964 25.1187 28.6599 25.1643 28.3939 25.2274C28.1277 25.2906 27.9859 25.3597 27.905 25.4245C27.7993 25.5095 27.6496 25.7055 27.7379 26.5525C27.8246 27.3829 28.1144 28.6194 28.6016 30.5173C29.0839 32.3964 29.7513 34.8943 30.5668 38.1911L30.5898 38.2849L30.5836 38.3806C30.4815 39.8999 30.4147 41.0868 30.4126 42.0187C30.4106 42.9606 30.4763 43.5851 30.6082 44.0035C30.7298 44.3894 30.8926 44.5602 31.1014 44.6657C31.3552 44.7938 31.7535 44.8635 32.4171 44.8665C32.4558 44.8666 32.4703 44.8597 32.487 44.8463C32.5143 44.8245 32.5672 44.7667 32.6271 44.6311C32.7519 44.3479 32.8404 43.88 32.8869 43.2067C32.9795 41.8676 32.8924 40.0207 32.8576 37.8893C32.8231 35.7826 32.7624 32.1641 32.2365 29.2322C31.9714 27.7544 31.6009 26.5315 31.1086 25.7672C30.8666 25.3915 30.6228 25.17 30.3901 25.0612Z" fill="white" stroke="white" stroke-width="1.22903"/>
<path d="M23.9004 25.1326C23.5586 25.2162 23.5322 25.2997 23.5189 25.3312C23.4901 25.3995 23.4618 25.5405 23.4726 25.8416C23.4832 26.1368 23.5269 26.5147 23.5906 27.0264C23.8451 29.0698 24.3443 32.736 23.745 39.3888L23.745 39.3898C23.656 40.926 23.5346 42.1427 23.4614 43.0656C23.3858 44.0195 23.3674 44.6131 23.4404 45.0046C23.4743 45.1861 23.5215 45.2848 23.5641 45.3429C23.6025 45.3953 23.6607 45.4481 23.7766 45.4981C24.0508 45.6162 24.5322 45.677 25.4152 45.6808L25.5558 45.6814L25.6837 45.7434C25.7275 45.7647 25.7589 45.7737 25.779 45.779C25.7879 45.7672 25.8012 45.7506 25.8153 45.7245C25.9367 45.4985 26.028 45.0265 26.0495 44.2873C26.0913 42.8521 25.869 40.8395 25.6558 38.9586L25.6523 38.9283L25.6519 38.899C25.6181 36.8349 25.1226 32.8352 24.6325 29.5313C24.3883 27.8858 24.1485 26.4289 23.9717 25.4932C23.9466 25.3602 23.9221 25.2401 23.9004 25.1326Z" fill="white" stroke="white" stroke-width="1.22903"/>
<path d="M45.1175 30.7359C45.2705 32.3193 45.2848 34.5086 44.9964 37.5426L44.9914 37.5914L44.9794 37.6382C44.2139 40.5736 42.8115 42.3509 42.1003 43.3387C42.0201 43.45 41.9546 43.5446 41.9009 43.6249C42.0597 43.6387 42.2674 43.6489 42.536 43.6501L42.6717 43.6507L42.7957 43.7078C43.6194 44.0905 44.3342 44.1944 44.9165 43.8184C45.5354 43.4186 46.2275 42.347 46.604 39.7668C46.5627 37.8076 45.9217 34.3003 45.2773 31.4298C45.2241 31.193 45.17 30.9615 45.1175 30.7359Z" fill="white" stroke="white" stroke-width="1.22903"/>
<path d="M45.7275 21.6175L45.6435 21.6757C45.1222 22.0349 44.7737 22.3129 44.5495 22.5508C44.3302 22.7835 44.2656 22.9407 44.2482 23.0562C44.2303 23.1749 44.2479 23.3431 44.3738 23.6299C44.5023 23.9226 44.716 24.2787 45.026 24.7613C46.2675 26.6943 48.6703 30.0674 51.0988 37.1791L51.1613 37.361L51.1097 37.5443C50.7289 38.9019 50.372 40.0642 50.0825 41.1291C49.7956 42.1838 49.6036 43.0459 49.5586 43.7269C49.5128 44.4205 49.6285 44.7951 49.807 45.0012C49.9755 45.1959 50.3312 45.3881 51.1423 45.3915L51.2693 45.3921L51.3873 45.4433C51.5103 45.4967 51.558 45.485 51.5647 45.4831C51.5733 45.4807 51.6229 45.4642 51.7032 45.3568C51.8835 45.1154 52.0598 44.633 52.2236 43.8564C52.3824 43.1031 52.513 42.1651 52.6538 41.0834C52.7922 40.0193 52.941 38.8239 53.1334 37.5744C53.1967 36.4252 52.8353 34.7313 52.1855 32.8116C51.5383 30.8998 50.6286 28.8332 49.6607 26.9856C48.6893 25.1315 47.6754 23.5296 46.8302 22.5321C46.3988 22.0229 46.0575 21.7271 45.8279 21.6082C45.7987 21.593 45.7743 21.5854 45.7561 21.5786L45.7275 21.6175Z" fill="white" stroke="white" stroke-width="1.22903"/>
<path d="M27.439 26.161L26.6316 24.4767L26.9588 24.5133C34.2173 25.3249 41.4199 23.0554 46.8073 18.2594L46.0617 20.3572L42.6481 26.2256L38.379 27.4681L27.439 26.161Z" fill="white" stroke="white" stroke-width="1.22903"/>
<path d="M41.9862 9.81111L45.0469 14.5232C46.1851 16.2754 45.5566 18.5968 43.7042 19.4831L36.7259 21.9747L30.6474 23.2127C28.1025 23.731 25.4361 23.0589 23.4012 21.3862C22.1472 20.3554 20.6361 19.6916 19.0399 19.4703L17.9455 19.3186C16.1728 19.0728 14.4992 18.3185 13.1284 17.1475C11.9129 16.1091 10.9792 14.7803 10.4177 13.2895L8.79865 8.99118C8.55086 8.33334 8.13888 7.74701 7.6025 7.28879L6.86113 6.65546C6.59158 6.42519 6.25024 6.2977 5.8993 6.29621L4.47017 6.29014C3.73636 6.28703 3.34057 5.41112 3.8309 4.87539C3.98715 4.70467 4.20883 4.60822 4.44268 4.60921L6.24073 4.61685C6.61162 4.61842 6.9752 4.52788 7.29882 4.35335L7.36266 4.31892C7.9802 3.98588 8.73029 3.98907 9.35882 4.3274C9.72836 4.52632 10.0328 4.82913 10.2338 5.19754L11.1198 6.8221C11.3949 7.32648 11.617 7.85721 11.7823 8.4056L12.6657 11.3352C12.9997 12.4429 13.7121 13.4051 14.677 14.052L15.2443 14.4323C15.9451 14.9021 16.7958 15.0842 17.616 14.9399C18.3001 14.8196 18.922 14.4793 19.3877 13.9704L20.2025 13.0802L23.4965 10.3264C24.6258 9.3823 25.915 8.64535 27.3064 8.14857L28.1079 7.8624C29.2602 7.45098 30.3081 6.80008 31.1835 5.95195L32.2702 4.89917C32.9447 4.24576 33.8212 3.83844 34.7629 3.74079C36.2748 3.58401 37.7732 4.2412 38.7012 5.46808L41.9862 9.81111Z" fill="white" stroke="white" stroke-width="4.91613" stroke-linecap="round"/>
</svg>
