<svg width="52" height="58" viewBox="0 0 52 58" fill="none" xmlns="http://www.w3.org/2000/svg">
<path d="M20.0639 30.6683L22.9569 32.5636C23.2062 32.727 23.1954 33.0919 22.9367 33.2464L20.2895 34.8277M19.6848 23.0218L20.0783 27.5537C20.1291 28.1388 20.4801 28.6545 21.0094 28.9214C22.0727 29.4577 23.3688 28.7995 23.5518 27.6303L24.0531 24.4288C24.0572 24.4027 24.0682 24.378 24.0851 24.3573C24.1461 24.2825 24.2613 24.2817 24.3216 24.3557L24.4442 24.5059C24.4599 24.5252 24.4732 24.5463 24.4836 24.5689L26.132 28.1166C26.2875 28.4512 26.7789 28.4292 26.9108 28.0817L31.7692 17.9826C31.8364 17.8429 31.8177 17.6787 31.721 17.559L23.3495 7.19724C23.334 7.17816 23.321 7.15729 23.3107 7.1351C23.1692 6.8306 22.7022 6.94631 22.7175 7.28206L22.8719 10.6548C22.9201 11.7077 21.4555 12.0705 21.0118 11.1157L20.1775 9.32005C19.8052 8.51875 18.5809 8.78279 18.5655 9.6677L18.7461 11.4412L19.2338 17.7826L19.6848 23.0218Z" stroke="white" stroke-width="0.408023" stroke-linecap="round"/>
<path d="M22.0583 40.0865L21.2813 37.9977C21.1973 37.7717 20.9494 37.6498 20.7131 37.7182C20.3919 37.811 20.1693 38.1007 20.1667 38.429L20.1303 43.0033C20.1196 44.3372 21.2102 45.4145 22.5661 45.4096L23.312 45.4678C24.0206 45.5231 24.5056 46.1868 24.3354 46.8683C24.2402 47.2494 23.954 47.5583 23.5768 47.6872L21.9913 48.2291C21.7878 48.2986 21.6019 48.4113 21.4468 48.5591C21.1409 48.8507 20.9774 49.2572 20.9987 49.673L21.3267 56.0764C21.3309 56.1581 21.402 56.2201 21.4851 56.2144C21.5439 56.2104 21.5953 56.1729 21.6165 56.1186L22.6269 53.5221C22.7947 52.9743 23.6151 53.0951 23.6 53.6654L23.5234 56.545C23.5195 56.6925 23.6359 56.8149 23.7858 56.8207C23.8763 56.8241 23.9633 56.7837 24.0187 56.7124L32.5054 45.7865C32.619 45.6403 32.6195 45.4383 32.5067 45.2941L25.5848 36.4453C25.5812 36.4406 25.578 36.4357 25.5753 36.4304C25.3971 36.0859 24.8685 36.1934 24.8358 36.5809L24.571 39.7264C24.456 41.0919 22.5348 41.3673 22.0583 40.0865Z" stroke="white" stroke-width="0.408023" stroke-linecap="round"/>
<path d="M45.672 31.3822C44.7118 32.135 43.6643 32.7294 42.7351 33.483C40.4322 35.3505 39.2125 38.3434 38.2767 41.1243C37.811 42.5083 37.532 43.6437 37.2287 43.7233C36.6472 43.876 31.73 33.8981 28.0418 33.5926C27.8943 33.5803 27.7579 33.5043 27.6911 33.375C27.589 33.1776 27.6833 32.9354 27.8893 32.8411C31.4993 31.1894 32.564 27.5144 34.555 21.9205C34.6306 21.7081 34.9167 21.6634 35.0507 21.8433L37.5853 25.2449C39.1703 27.3721 41.2789 29.0665 43.7167 30.1716L45.6061 31.2546" stroke="white" stroke-width="0.408023" stroke-linecap="round"/>
</svg>
