<svg width="38" height="29" viewBox="0 0 38 29" fill="none" xmlns="http://www.w3.org/2000/svg">
<g filter="url(#filter0_d_216_574)">
<path d="M16.9663 19.2886L15.4624 19.3884C15.3666 19.3947 15.2713 19.3624 15.198 19.2986C15.0687 19.1863 15.0334 19.0006 15.1132 18.8529L15.4028 18.3166C15.468 18.1958 15.5101 18.0635 15.5268 17.9265L15.6861 16.6222L15.7994 15.3429L15.9607 14.2238L16.0748 12.9881L16.0544 11.8101L15.8996 10.6897L15.7011 9.65183" stroke="white" stroke-width="1.33216" stroke-linecap="round"/>
<path d="M9.45777 1.96338L9.80531 1.63247C9.93593 1.50809 9.97847 1.31642 9.91354 1.14474C9.79848 0.840496 9.41501 0.741853 9.17706 0.955288L9.0959 1.02809C9.00009 1.11403 8.87533 1.1612 8.74524 1.16068L8.10571 1.15811C7.92995 1.1574 7.76118 1.22005 7.63033 1.33458C7.48499 1.4618 7.29351 1.52448 7.09861 1.50866L6.24536 1.43937C6.01537 1.4207 5.78527 1.45466 5.57258 1.53868L5.56061 1.54341C5.39678 1.60813 5.24693 1.70275 5.11856 1.82252L4.88358 2.04176C4.74167 2.17417 4.66288 2.36106 4.66627 2.55722L4.6687 2.69748C4.67194 2.88547 4.78403 3.0568 4.95596 3.13658C5.02014 3.16636 5.08973 3.18193 5.15991 3.18222L5.23402 3.18251L6.95781 3.18944C7.21592 3.19048 7.46785 3.27942 7.67207 3.44161C7.87307 3.60125 8.01614 3.82255 8.07837 4.0701L8.17628 4.45954L8.33526 4.92933C8.56549 5.60965 8.92435 6.24178 9.39203 6.79085C9.65661 7.10148 9.95382 7.38292 10.2783 7.63015L10.6249 7.89421C10.861 8.07402 11.1139 8.2301 11.38 8.3601C11.9857 8.65599 12.6481 8.81119 13.3166 8.81387L13.6758 8.81532C14.0518 8.81683 14.4268 8.87047 14.7903 8.97469C15.2781 9.11456 15.7374 9.34341 16.145 9.64956L16.1637 9.66362C16.7178 10.0798 17.1641 10.6235 17.4635 11.247L17.882 12.1188L18.5919 13.9977L18.9987 14.7721C19.3528 15.4461 19.5061 16.2041 19.4399 16.9544L19.4239 17.136C19.4099 17.2947 19.3788 17.4511 19.331 17.6025L19 18.6516C18.9412 18.8381 18.9977 19.0441 19.1446 19.1783C19.2167 19.2442 19.306 19.2882 19.4016 19.3051L19.6568 19.3501C20.4995 19.4986 21.2567 18.8549 21.242 18.0023L21.2063 15.9381C21.2017 15.6749 21.1638 15.4127 21.0935 15.1576L19.9249 10.9225C19.9226 10.9144 19.9214 10.9061 19.9213 10.8977C19.92 10.8228 19.999 10.7753 20.0656 10.8109L21.6704 11.6676C21.8432 11.7598 22.0351 11.8085 22.2292 11.8092L23.0647 11.8126C23.3746 11.8139 23.6829 11.7811 23.9841 11.7149C24.7288 11.5514 25.4109 11.188 25.9577 10.6636L26.3005 10.3349" stroke="white" stroke-width="1.33216" stroke-linecap="round"/>
<path d="M25.2607 7.91015L25.1748 7.98847C24.6533 8.46348 24.0498 8.84219 23.3935 9.10673C23.0799 9.23312 22.7552 9.33295 22.4239 9.40481C21.7511 9.55068 21.056 9.58047 20.3684 9.4929L20.1102 9.46004" stroke="white" stroke-width="1.33216" stroke-linecap="round"/>
<path d="M26.122 18.5061L25.2588 18.5026C25.1382 18.5021 25.0229 18.4479 24.9444 18.3547C24.8064 18.1909 24.816 17.951 24.9665 17.8048L26.1404 16.6643C26.5627 16.254 26.7956 15.6856 26.7854 15.0906L26.7583 13.5232C26.7506 13.08 26.6538 12.6409 26.4735 12.2322L26.4613 12.2046C26.1596 11.5206 26.1014 10.7585 26.2966 10.0472" stroke="white" stroke-width="1.33216" stroke-linecap="round"/>
<path d="M30.3042 19.1396L28.8251 19.0029C28.6601 18.9876 28.5524 18.8187 28.6096 18.6647C28.6196 18.6377 28.6344 18.6128 28.6531 18.591L29.0061 18.1819C29.7827 17.2816 30.0067 16.0232 29.5927 14.8867L29.2672 13.9933C28.977 13.1966 28.4903 12.4826 27.8529 11.9185L27.5868 11.6829C27.2203 11.3237 26.8911 10.9284 26.6044 10.5033L26.2994 10.0509" stroke="white" stroke-width="1.33216" stroke-linecap="round"/>
<path d="M26.4495 4.48519L27.077 5.15973C27.8024 5.93954 28.1287 7.00582 27.959 8.04201C27.7874 9.08983 28.123 10.1677 28.8643 10.949L29.6585 11.7862C30.9675 13.1661 31.5165 15.0928 31.1227 16.9242L30.6442 19.1496" stroke="white" stroke-width="1.33216" stroke-linecap="round"/>
<path d="M32.49 10.4372L30.4215 8.21224C30.0867 7.85212 29.8199 7.43473 29.6346 6.98104C29.1945 5.90345 28.2999 5.05908 27.2017 4.67541C26.457 4.41524 25.7948 3.94103 25.309 3.31589L24.2814 1.99354C23.4245 0.890865 21.9012 0.566945 20.7041 1.23288C20.5252 1.33242 20.3583 1.45181 20.2066 1.58884L19.5509 2.18115C19.0055 2.67385 18.3255 2.99481 17.5932 3.10515C16.9125 3.20773 16.276 3.49247 15.7506 3.92941L13.789 5.56072C13.1587 6.08497 12.2485 6.12188 11.5566 5.65125C11.3078 5.48198 11.102 5.25629 10.9565 4.99315L10.5441 4.24703C10.4142 4.01207 10.3301 3.75536 10.2962 3.49079C10.2611 3.21732 10.1724 2.95234 10.0351 2.71115L9.76185 2.23112" stroke="white" stroke-width="1.33216" stroke-linecap="round"/>
<path d="M19.4752 10.6406C19.3448 10.5901 19.186 10.577 18.9858 10.6299L18.9644 10.6356L18.942 10.6375C18.717 10.6589 18.5399 10.6789 18.3983 10.7066C18.2552 10.7346 18.1719 10.7665 18.1226 10.7992C18.0831 10.8255 18.0604 10.8553 18.0454 10.9073C18.0273 10.9703 18.0193 11.0741 18.0405 11.2451C18.0833 11.5907 18.2287 12.1094 18.4765 12.9144C18.7213 13.7096 19.0609 14.7684 19.475 16.1648L19.4895 16.2147L19.4855 16.2664C19.4317 16.9097 19.3959 17.4099 19.3939 17.8018C19.3919 18.1987 19.4247 18.4546 19.4882 18.6223C19.5444 18.7708 19.6231 18.8475 19.7478 18.8997C19.8937 18.9607 20.1131 18.9918 20.4564 18.9933C20.4972 18.9935 20.5205 18.984 20.5371 18.9732C20.5559 18.9608 20.5817 18.9351 20.6098 18.8826C20.6699 18.7703 20.715 18.5806 20.7393 18.2983C20.7877 17.7353 20.7455 16.9591 20.7298 16.0527C20.7144 15.1595 20.6873 13.633 20.4225 12.398C20.2892 11.7763 20.1027 11.2664 19.8555 10.9478C19.735 10.7924 19.6082 10.6922 19.4752 10.6406Z" fill="white" stroke="white" stroke-width="0.54975"/>
<path d="M16.1587 10.6542C16.0706 10.669 16.0064 10.6842 15.9594 10.7022C15.8916 10.7282 15.8819 10.7486 15.8783 10.7556C15.8686 10.7745 15.8541 10.8229 15.8591 10.9459C15.8641 11.0671 15.8853 11.2239 15.9175 11.4412C16.0381 12.2555 16.2678 13.6781 16.0356 16.1838L15.983 16.7C15.9358 17.3463 15.873 17.8599 15.8349 18.2469C15.795 18.6525 15.786 18.8944 15.8205 19.0494C15.8358 19.1184 15.8578 19.1545 15.8773 19.1766C15.897 19.1988 15.9311 19.2261 16.0017 19.2513C16.1585 19.3073 16.421 19.3321 16.8722 19.3339L16.9249 19.3341L16.975 19.3538C17.0516 19.3846 17.083 19.378 17.0877 19.3767C17.0886 19.3765 17.1019 19.3749 17.1242 19.3408C17.1808 19.2539 17.2274 19.0654 17.2391 18.7554C17.2617 18.1539 17.1505 17.3072 17.0431 16.509L17.0408 16.4934L17.0406 16.4778C17.0256 15.6091 16.7774 13.9193 16.5298 12.5196C16.4067 11.8232 16.2849 11.2076 16.1957 10.8125C16.1824 10.7537 16.17 10.7008 16.1587 10.6542Z" fill="white" stroke="white" stroke-width="0.54975"/>
<path d="M26.835 12.4123C26.9936 13.1004 27.0702 14.188 26.8673 15.9165L26.8638 15.9429L26.8564 15.9673C26.4586 17.2186 25.7344 17.9745 25.3711 18.3904C25.3468 18.4183 25.3253 18.4444 25.306 18.4673C25.3917 18.4736 25.5018 18.4798 25.6412 18.4804L25.6919 18.4806L25.7401 18.4984C26.1672 18.6628 26.5694 18.719 26.8999 18.543C27.2267 18.3689 27.5741 17.9186 27.767 16.8448C27.7465 16.022 27.4252 14.548 27.099 13.335C27.0078 12.996 26.9176 12.6816 26.835 12.4123ZM26.6087 11.7465C26.6128 11.755 26.6177 11.7632 26.6218 11.7719C26.6185 11.7631 26.6148 11.7547 26.6116 11.7465L26.6087 11.7465Z" fill="white" stroke="white" stroke-width="0.54975"/>
<path d="M27.2812 9.15967L27.2525 9.19275L27.2138 9.21505C26.9452 9.36777 26.7638 9.48645 26.6471 9.58867C26.5305 9.69071 26.5052 9.75321 26.4991 9.78627C26.4933 9.81758 26.4948 9.87482 26.5574 9.99349C26.6213 10.1146 26.7292 10.2644 26.8878 10.4693C27.521 11.2875 28.7503 12.7192 29.9884 15.7365L30.0281 15.8333L29.9947 15.9298C29.7974 16.5072 29.6149 16.9964 29.4653 17.4479C29.3174 17.8943 29.2192 18.2535 29.196 18.5345C29.1728 18.8156 29.2289 18.958 29.3141 19.0397C29.4094 19.131 29.6134 19.2186 30.0457 19.2203L30.0935 19.2205L30.1387 19.2363C30.2143 19.2635 30.2588 19.2614 30.2845 19.2555C30.3093 19.2497 30.3416 19.235 30.3811 19.1914C30.4706 19.0925 30.559 18.8949 30.6428 18.5696C30.7241 18.2534 30.7915 17.8589 30.8647 17.4008C30.9365 16.9515 31.0136 16.4449 31.1135 15.9158C31.1448 15.4437 30.9664 14.7385 30.6368 13.928C30.3086 13.1211 29.8461 12.2478 29.3531 11.4663C28.8586 10.6824 28.342 10.0045 27.9105 9.58203C27.692 9.36819 27.5143 9.23925 27.3871 9.1845C27.3253 9.15798 27.2933 9.15691 27.2841 9.15773C27.283 9.15783 27.2851 9.15522 27.2812 9.15967Z" fill="white" stroke="white" stroke-width="0.54975"/>
<path d="M17.9295 11.085L17.5179 10.3716L18.0936 10.4251C21.5899 10.7503 25.0584 9.7976 27.8545 7.74414L27.4705 8.63226L25.7166 11.1163L23.5295 11.6413L17.9295 11.085Z" fill="white" stroke="white" stroke-width="0.54975"/>
<path d="M25.3948 4.16657L26.8454 6.02023C27.4487 6.79112 27.1589 7.90934 26.2642 8.26255L22.6886 9.31577L19.426 9.86345C18.199 10.0694 16.9298 9.78741 15.8878 9.07729C15.2302 8.62915 14.4758 8.34745 13.6911 8.25706L12.868 8.16223C12.0925 8.07289 11.3484 7.78735 10.7065 7.3327C10.0244 6.84958 9.48238 6.19311 9.13834 5.43336L8.44747 3.90775C8.29279 3.56617 8.0491 3.27102 7.74243 3.05381L7.3793 2.79662C7.26297 2.71423 7.1246 2.66964 6.98347 2.66907L6.13805 2.66568C5.811 2.66436 5.65009 2.25976 5.89047 2.04316C5.95467 1.98531 6.03841 1.95354 6.12575 1.95389L7.10528 1.95783C7.29156 1.95858 7.47507 1.92014 7.6439 1.84501L7.70616 1.8173C8.00797 1.68299 8.35538 1.68438 8.66187 1.82114C8.87278 1.91524 9.05283 2.06842 9.17983 2.2618L9.5714 2.858C9.72681 3.09464 9.8539 3.34833 9.94998 3.61373L10.3125 4.61509C10.526 5.20472 10.9478 5.69956 11.4973 6.00489L11.6879 6.11084C12.0567 6.31577 12.4804 6.39448 12.8929 6.33471C13.2574 6.28189 13.5963 6.1234 13.8679 5.87871L14.238 5.54518L15.8878 4.40733C16.4942 3.98912 17.1643 3.66972 17.8738 3.46072L18.3291 3.3266C18.8956 3.15974 19.4226 2.88546 19.8818 2.51852L20.3795 2.12076C20.7576 1.81864 21.2182 1.63557 21.7046 1.59412C22.4902 1.52716 23.2693 1.83503 23.807 2.42492L25.3948 4.16657Z" fill="white" stroke="white" stroke-width="2.199" stroke-linecap="round"/>
</g>
<defs>
<filter id="filter0_d_216_574" x="0" y="0.174801" width="37.1561" height="27.8799" filterUnits="userSpaceOnUse" color-interpolation-filters="sRGB">
<feFlood flood-opacity="0" result="BackgroundImageFix"/>
<feColorMatrix in="SourceAlpha" type="matrix" values="0 0 0 0 0 0 0 0 0 0 0 0 0 0 0 0 0 0 127 0" result="hardAlpha"/>
<feOffset dy="4"/>
<feGaussianBlur stdDeviation="2"/>
<feComposite in2="hardAlpha" operator="out"/>
<feColorMatrix type="matrix" values="0 0 0 0 0 0 0 0 0 0 0 0 0 0 0 0 0 0 0.25 0"/>
<feBlend mode="normal" in2="BackgroundImageFix" result="effect1_dropShadow_216_574"/>
<feBlend mode="normal" in="SourceGraphic" in2="effect1_dropShadow_216_574" result="shape"/>
</filter>
</defs>
</svg>
