<svg width="23" height="152" viewBox="0 0 23 152" fill="none" xmlns="http://www.w3.org/2000/svg">
<path d="M2.993 134.429L4.66452 135.667C4.80858 135.773 4.78954 135.992 4.62888 136.076L2.98535 136.934M3.02846 129.826L3.10877 132.56C3.11913 132.913 3.31215 133.235 3.62068 133.413C4.24054 133.772 5.04129 133.421 5.1914 132.726L5.60246 130.821C5.60581 130.805 5.61329 130.791 5.62412 130.779C5.66334 130.736 5.73249 130.74 5.76618 130.786L5.83457 130.881C5.84336 130.893 5.85059 130.906 5.85611 130.92L6.72361 133.106C6.80544 133.313 7.10117 133.316 7.1923 133.112L10.4564 127.217C10.5016 127.135 10.496 127.036 10.442 126.961L5.77289 120.452C5.76429 120.44 5.7572 120.427 5.75177 120.414C5.67732 120.226 5.39295 120.279 5.39062 120.482L5.36725 122.512C5.35995 123.145 4.46823 123.313 4.23474 122.724L3.79566 121.618C3.59972 121.124 2.85568 121.24 2.81598 121.771L2.86338 122.842L2.93799 126.665L3.02846 129.826Z" stroke="white" stroke-width="0.245347" stroke-linecap="round"/>
<path d="M3.98379 140.924L2.90769 137.86C2.89094 137.812 2.81899 137.825 2.81863 137.875L2.59655 141.87C2.55191 142.673 3.17366 143.355 3.99007 143.399L4.43586 143.459C4.85936 143.517 5.12764 143.932 5.00202 144.335C4.93177 144.561 4.74934 144.736 4.51848 144.801L3.54802 145.072C3.42346 145.106 3.30798 145.168 3.20981 145.251C3.01613 145.416 2.90396 145.654 2.90244 145.904L2.88806 148.274L3.13657 150.997C3.13926 151.026 3.15461 151.053 3.17878 151.071C3.24349 151.118 3.33648 151.079 3.348 151L3.74183 148.309C3.74556 148.284 3.75197 148.259 3.76095 148.234C3.90686 147.84 4.49932 147.939 4.49678 148.358L4.48292 150.643C4.4821 150.771 4.64701 150.825 4.7261 150.723L10.0365 143.865C10.0552 143.841 10.0557 143.808 10.0377 143.784L5.27856 137.339C5.34083 137.424 5.36744 137.529 5.35287 137.632L4.91306 140.765C4.90986 141.293 4.15862 141.422 3.98379 140.924Z" stroke="white" stroke-width="0.245347" stroke-linecap="round"/>
<path d="M18.339 135.731C17.7366 136.15 17.0873 136.471 16.5036 136.891C15.0568 137.933 14.2217 139.688 13.5642 141.325C13.237 142.14 13.0305 142.812 12.8456 142.849C12.4913 142.921 9.8827 136.762 7.6791 136.451C7.59099 136.439 7.51174 136.389 7.47604 136.309C7.42154 136.187 7.48652 136.045 7.61341 135.995C9.83741 135.128 10.603 132.958 11.9907 129.669C12.0434 129.544 12.2167 129.527 12.2909 129.639L13.6955 131.768C14.5738 133.1 15.7813 134.19 17.2068 134.937L18.3037 135.652" stroke="white" stroke-width="0.245347" stroke-linecap="round"/>
<path d="M3.19747 103.811L4.86899 105.048C5.01305 105.155 4.99401 105.373 4.83335 105.457L3.18982 106.316M3.23293 99.2074L3.31323 101.942C3.3236 102.295 3.51662 102.616 3.82515 102.795C4.44501 103.153 5.24575 102.803 5.39587 102.107L5.80692 100.202C5.81028 100.187 5.81775 100.172 5.82859 100.161C5.8678 100.118 5.93696 100.121 5.97065 100.168L6.03904 100.262C6.04783 100.274 6.05506 100.287 6.06057 100.301L6.92808 102.488C7.00991 102.694 7.30564 102.698 7.39677 102.494L10.6609 96.598C10.706 96.5165 10.7004 96.4173 10.6465 96.342L5.97736 89.8336C5.96876 89.8217 5.96167 89.8087 5.95624 89.795C5.88178 89.6073 5.59742 89.6607 5.59509 89.8628L5.57172 91.8929C5.56442 92.5266 4.67269 92.694 4.43921 92.1055L4.00013 90.9989C3.80419 90.505 3.06015 90.6214 3.02044 91.1521L3.06785 92.223L3.14246 96.0467L3.23293 99.2074Z" stroke="white" stroke-width="0.245347" stroke-linecap="round"/>
<path d="M4.07115 109.572L3.67657 108.292C3.63387 108.153 3.4893 108.071 3.34507 108.104C3.14907 108.149 3.00542 108.315 2.99256 108.512L2.81333 111.257C2.76107 112.058 3.37867 112.742 4.19283 112.785L4.63862 112.846C5.06212 112.904 5.3304 113.319 5.20477 113.722C5.13453 113.948 4.9521 114.123 4.72124 114.188L3.75078 114.458C3.62622 114.493 3.51074 114.554 3.41257 114.638C3.21888 114.802 3.10671 115.041 3.1052 115.291L3.08181 119.146C3.08152 119.196 3.12206 119.235 3.17215 119.235C3.20761 119.234 3.23976 119.214 3.25432 119.182L3.9502 117.658C4.0698 117.335 4.55818 117.435 4.52946 117.777L4.38442 119.503C4.37698 119.592 4.44267 119.669 4.53243 119.678C4.58666 119.683 4.6403 119.662 4.67598 119.621L10.1466 113.354C10.2199 113.27 10.2271 113.149 10.1643 113.058L6.31347 107.508C6.31145 107.505 6.30971 107.502 6.30827 107.499C6.21312 107.286 5.89208 107.332 5.85916 107.563L5.59195 109.443C5.47594 110.259 4.31311 110.358 4.07115 109.572Z" stroke="white" stroke-width="0.245347" stroke-linecap="round"/>
<path d="M18.5434 105.128C17.9411 105.547 17.2918 105.867 16.708 106.288C15.2613 107.33 14.4262 109.084 13.7687 110.722C13.4415 111.536 13.2349 112.208 13.0501 112.246C12.6958 112.317 10.0872 106.158 7.88356 105.848C7.79545 105.836 7.71621 105.785 7.68051 105.705C7.62601 105.583 7.69098 105.441 7.81788 105.392C10.0419 104.524 10.8075 102.355 12.1952 99.0651C12.2479 98.9402 12.4211 98.9232 12.4954 99.0358L13.8999 101.165C14.7783 102.497 15.9858 103.586 17.4112 104.334L18.5082 105.049" stroke="white" stroke-width="0.245347" stroke-linecap="round"/>
<path d="M3.31575 73.9027L4.98727 75.14C5.13134 75.2467 5.11229 75.4653 4.95163 75.5492L3.30811 76.4074M3.35122 69.2993L3.43152 72.0334C3.44189 72.3864 3.6349 72.7081 3.94343 72.8865C4.5633 73.245 5.36404 72.8945 5.51416 72.1989L5.92521 70.2942C5.92856 70.2787 5.93604 70.2643 5.94688 70.2524C5.98609 70.2096 6.05525 70.2131 6.08894 70.2596L6.15732 70.3539C6.16611 70.3661 6.17335 70.3792 6.17886 70.3931L7.04637 72.5796C7.12819 72.7858 7.42392 72.7895 7.51505 72.5854L10.7792 66.6899C10.8243 66.6083 10.8187 66.5091 10.7648 66.4339L6.09564 59.9255C6.08705 59.9135 6.07996 59.9006 6.07453 59.8869C6.00007 59.6992 5.7157 59.7526 5.71338 59.9547L5.69 61.9848C5.68271 62.6185 4.79098 62.7859 4.55749 62.1974L4.11841 61.0908C3.92248 60.5969 3.17844 60.7133 3.13873 61.244L3.18614 62.3149L3.26074 66.1385L3.35122 69.2993Z" stroke="white" stroke-width="0.245347" stroke-linecap="round"/>
<path d="M4.18578 79.6562L3.79119 78.3756C3.7485 78.237 3.60392 78.1553 3.4597 78.1882C3.26369 78.2329 3.12005 78.3991 3.10718 78.5961L2.92796 81.3409C2.87569 82.1413 3.4933 82.8255 4.30746 82.8693L4.75324 82.9299C5.17674 82.9875 5.44502 83.4025 5.3194 83.8058C5.24915 84.0313 5.06673 84.207 4.83586 84.2714L3.86541 84.5421C3.74085 84.5768 3.62536 84.6381 3.52719 84.7215C3.33351 84.886 3.22134 85.1244 3.21982 85.3748L3.19644 89.2301C3.19614 89.2793 3.23669 89.319 3.28677 89.3184C3.32223 89.3181 3.35438 89.2973 3.36895 89.2654L4.06483 87.7415C4.18443 87.4184 4.67281 87.5191 4.64408 87.861L4.49904 89.587C4.49161 89.6755 4.5573 89.7529 4.64705 89.7615C4.70129 89.7667 4.75492 89.7455 4.7906 89.7046L10.2613 83.4375C10.3345 83.3536 10.3417 83.2324 10.279 83.1419L6.42809 77.5916C6.42608 77.5887 6.42433 77.5856 6.42289 77.5824C6.32775 77.3694 6.0067 77.4158 5.97379 77.6473L5.70658 79.5265C5.59057 80.3423 4.42774 80.4415 4.18578 79.6562Z" stroke="white" stroke-width="0.245347" stroke-linecap="round"/>
<path d="M18.6618 75.2034C18.0595 75.6223 17.4102 75.9431 16.8264 76.3635C15.3797 77.4054 14.5446 79.1601 13.8871 80.7973C13.5599 81.6122 13.3533 82.2842 13.1685 82.3216C12.8142 82.3932 10.2056 76.2341 8.00197 75.9238C7.91386 75.9114 7.83462 75.861 7.79892 75.7811C7.74442 75.6591 7.80939 75.5169 7.93629 75.4674C10.1603 74.6 10.9259 72.4305 12.3136 69.1409C12.3663 69.0159 12.5395 68.9989 12.6138 69.1116L14.0183 71.2408C14.8967 72.5724 16.1042 73.6621 17.5296 74.4094L18.6266 75.1246" stroke="white" stroke-width="0.245347" stroke-linecap="round"/>
<path d="M3.41451 44.0002L5.08603 45.2375C5.23009 45.3442 5.21105 45.5628 5.05039 45.6467L3.40686 46.5049M3.44997 39.3968L3.53027 42.1309C3.54064 42.4839 3.73366 42.8056 4.04219 42.984C4.66205 43.3426 5.4628 42.992 5.61291 42.2964L6.02397 40.3917C6.02732 40.3762 6.03479 40.3618 6.04563 40.3499C6.08484 40.3071 6.154 40.3106 6.18769 40.3571L6.25608 40.4514C6.26487 40.4636 6.2721 40.4767 6.27762 40.4906L7.14512 42.6771C7.22695 42.8833 7.52268 42.887 7.61381 42.6829L10.8779 36.7874C10.9231 36.7058 10.9175 36.6067 10.8635 36.5314L6.1944 30.023C6.1858 30.0111 6.17871 29.9981 6.17328 29.9844C6.09883 29.7967 5.81446 29.8501 5.81213 30.0522L5.78876 32.0823C5.78146 32.716 4.88973 32.8834 4.65625 32.2949L4.21717 31.1883C4.02123 30.6944 3.27719 30.8108 3.23749 31.3415L3.28489 32.4124L3.3595 36.236L3.44997 39.3968Z" stroke="white" stroke-width="0.245347" stroke-linecap="round"/>
<path d="M4.28819 49.7233L3.89361 48.4426C3.85091 48.3041 3.70634 48.2223 3.56211 48.2553C3.36611 48.3 3.22246 48.4662 3.2096 48.6632L3.03037 51.408C2.97811 52.2084 3.59571 52.8926 4.40987 52.9363L4.85566 52.997C5.27916 53.0545 5.54744 53.4696 5.42182 53.8729C5.35157 54.0984 5.16914 54.274 4.93828 54.3384L3.96782 54.6092C3.84326 54.6439 3.72778 54.7052 3.62961 54.7886C3.43593 54.9531 3.32376 55.1915 3.32224 55.4419L3.29885 59.2972C3.29856 59.3464 3.3391 59.3861 3.38919 59.3855C3.42465 59.3852 3.4568 59.3644 3.47137 59.3325L4.16724 57.8086C4.28684 57.4855 4.77522 57.5862 4.7465 57.9281L4.60146 59.6541C4.59402 59.7425 4.65971 59.82 4.74947 59.8286C4.8037 59.8338 4.85734 59.8125 4.89302 59.7717L10.3637 53.5046C10.4369 53.4207 10.4442 53.2995 10.3814 53.209L6.53051 47.6587C6.52849 47.6558 6.52675 47.6527 6.52531 47.6495C6.43016 47.4365 6.10912 47.4829 6.0762 47.7144L5.80899 49.5935C5.69298 50.4094 4.53015 50.5086 4.28819 49.7233Z" stroke="white" stroke-width="0.245347" stroke-linecap="round"/>
<path d="M18.7633 45.3098C18.1609 45.7287 17.5116 46.0495 16.9279 46.47C15.4812 47.5119 14.646 49.2665 13.9886 50.9038C13.6613 51.7186 13.4548 52.3906 13.27 52.428C12.9157 52.4996 10.307 46.3405 8.10341 46.0302C8.0153 46.0178 7.93606 45.9675 7.90036 45.8876C7.84586 45.7656 7.91083 45.6234 8.03773 45.5739C10.2617 44.7065 11.0273 42.537 12.415 39.2473C12.4677 39.1224 12.641 39.1054 12.7153 39.218L14.1198 41.3473C14.9981 42.6788 16.2057 43.7685 17.6311 44.5158L18.7281 45.231" stroke="white" stroke-width="0.245347" stroke-linecap="round"/>
<path d="M3.696 14.2532L5.36752 15.4906C5.51159 15.5972 5.49254 15.8159 5.33188 15.8998L3.68835 16.7579M3.73147 9.64983L3.81177 12.384C3.82214 12.737 4.01515 13.0586 4.32368 13.2371C4.94355 13.5956 5.74429 13.2451 5.89441 12.5495L6.30546 10.6448C6.30881 10.6292 6.31629 10.6148 6.32713 10.603C6.36634 10.5601 6.4355 10.5636 6.46919 10.6101L6.53757 10.7045C6.54636 10.7166 6.5536 10.7298 6.55911 10.7437L7.42661 12.9302C7.50844 13.1364 7.80417 13.1401 7.8953 12.936L11.1594 7.04044C11.2046 6.9589 11.199 6.8597 11.145 6.78448L6.47589 0.276091C6.4673 0.264104 6.46021 0.251132 6.45478 0.237451C6.38032 0.0497864 6.09595 0.103184 6.09362 0.305267L6.07025 2.33533C6.06295 2.96902 5.17123 3.13647 4.93774 2.54798L4.49866 1.44132C4.30272 0.947482 3.55869 1.06387 3.51898 1.59457L3.56638 2.66546L3.64099 6.4891L3.73147 9.64983Z" stroke="white" stroke-width="0.245347" stroke-linecap="round"/>
<path d="M4.56969 19.9764L4.1751 18.6957C4.13241 18.5571 3.98783 18.4754 3.84361 18.5083C3.6476 18.553 3.50396 18.7193 3.49109 18.9162L3.31187 21.6611C3.25961 22.4614 3.87721 23.1457 4.69137 23.1894L5.13715 23.25C5.56065 23.3076 5.82893 23.7227 5.70331 24.1259C5.63306 24.3514 5.45064 24.5271 5.21977 24.5915L4.24932 24.8622C4.12476 24.897 4.00928 24.9582 3.9111 25.0416C3.71742 25.2061 3.60525 25.4445 3.60373 25.6949L3.58035 29.5502C3.58005 29.5995 3.6206 29.6391 3.67068 29.6386C3.70614 29.6382 3.73829 29.6175 3.75286 29.5856L4.44874 28.0616C4.56834 27.7385 5.05672 27.8393 5.02799 28.1811L4.88295 29.9071C4.87552 29.9956 4.94121 30.073 5.03097 30.0817C5.0852 30.0869 5.13884 30.0656 5.17451 30.0247L10.6452 23.7576C10.7184 23.6737 10.7257 23.5525 10.6629 23.4621L6.812 17.9118C6.80999 17.9089 6.80825 17.9058 6.8068 17.9025C6.71166 17.6896 6.39061 17.7359 6.3577 17.9674L6.09049 19.8466C5.97448 20.6624 4.81165 20.7616 4.56969 19.9764Z" stroke="white" stroke-width="0.245347" stroke-linecap="round"/>
<path d="M19.0439 15.5629C18.4415 15.9818 17.7923 16.3026 17.2085 16.723C15.7618 17.7649 14.9266 19.5196 14.2692 21.1568C13.942 21.9717 13.7354 22.6437 13.5506 22.6811C13.1963 22.7527 10.5877 16.5936 8.38405 16.2833C8.29594 16.2709 8.2167 16.2205 8.181 16.1406C8.1265 16.0186 8.19147 15.8764 8.31837 15.8269C10.5424 14.9595 11.3079 12.79 12.6957 9.50037C12.7484 9.37543 12.9216 9.35844 12.9959 9.47106L14.4004 11.6003C15.2788 12.9319 16.4863 14.0216 17.9117 14.7689L19.0087 15.484" stroke="white" stroke-width="0.245347" stroke-linecap="round"/>
</svg>
